PathFileType	4	(X/Y/Z)	C:/Users/beibeiliu/ov580/test_trc/User1\sequence.31_training_dense_right.trc
DataRate	CameraRate	NumFrames	NumMarkers	Units	OrigDataRate	OrigDataStartFrame	OrigNumFrames
120	120	20	19	mm	120	97	256
Frame#	Time	ThumbCMC			ThumbMCP			ThumbIP			ThumbTip			IndexMCP			IndexPIP			IndexTip			MiddleMCP			MiddlePIP			MiddleTip			RingMCP			RingPIP			RingTip			PinkyMCP			PinkyPIP			PinkyTip			BackHand1			BackHand2			BackHand3	
		X0	Y0	Z0	X1	Y1	Z1	X2	Y2	Z2	X3	Y3	Z3	X4	Y4	Z4	X5	Y5	Z5	X6	Y6	Z6	X7	Y7	Z7	X8	Y8	Z8	X9	Y9	Z9	X10	Y10	Z10	X11	Y11	Z11	X12	Y12	Z12	X13	Y13	Z13	X14	Y14	Z14	X15	Y15	Z15	X16	Y16	Z16	X17	Y17	Z17	X18	Y18	Z18	
96	0.8	141.069	-24.7722	69.6147	127.008	-48.3713	51.9503	112.9	-61.5251	34.8802	103.936	-78.7931	17.708	169.13	-8.20605	-4.66524	171.491	-5.89226	-33.1736	179.335	-18.2799	-60.2305	204.835	-8.90008	-10.0579	216.64	-14.128	-39.2168	218.188	-32.7648	-64.5171	223.363	-33.5298	-1.82131	220.193	-62.2863	-25.21	202.684	-86.7257	-13.8267	237.991	-55.0974	20.1754	223.021	-78.745	5.6334	201.676	-95.7409	12.3014	212.668	-14.7228	53.384	209.156	-8.91695	83.8631	179.169	-3.02746	64.4827	
97	0.808333	141.302	-25.7969	69.6767	128.223	-47.2557	52.4051	111.419	-61.0099	34.4446	108.577	-79.0222	14.7351	173.157	-7.84454	-4.09474	174.86	-7.83829	-35.109	177.321	-23.7732	-61.0953	204.928	-7.59942	-10.1027	212.554	-13.5894	-39.966	215.744	-40.044	-65.1961	223.376	-33.5065	-6.07557	223.01	-59.142	-24.4211	207.294	-85.9163	-11.1945	234.446	-53.6312	17.7644	225.216	-82.0229	6.80094	198.572	-95.5037	17.8428	215.883	-15.7187	51.1454	211.32	-8.47677	83.6839	178.984	-3.22336	62.0678	
98	0.816667	142.354	-25.045	72.9603	126.411	-47.2707	55.1634	117.496	-60.8205	32.3845	110.888	-80.0716	11.3351	174.932	-7.07783	-3.95819	178.591	-8.06336	-35.5125	173.992	-27.0747	-61.7898	207.878	-7.21056	-8.11499	214.702	-15.2463	-42.336	212.144	-40.1987	-62.0629	223.91	-31.5589	-2.28573	222.045	-56.5817	-24.6737	206.75	-82.1991	-11.7668	238.441	-53.8501	20.0433	221.197	-77.8815	4.6735	198.232	-90.0302	18.4214	213.453	-14.8052	53.4094	212.768	-9.97105	87.6797	178.591	-3.20151	60.4823	
99	0.825	143.533	-23.6616	70.5536	129.08	-46.9476	52.4806	118.031	-60.9487	27.8309	115.275	-80.9242	7.85843	172.556	-6.01516	-4.36378	175.965	-6.53628	-34.744	174.693	-32.2367	-59.4088	205.445	-5.52171	-8.95351	213.811	-14.3353	-39.6612	208.849	-44.0299	-60.4208	223.447	-31.1161	-4.80163	221.798	-58.8597	-24.1549	206.99	-81.974	-7.67716	238.476	-54.9664	16.5719	225.189	-80.5033	6.23481	196.125	-89.3025	18.5916	216.588	-15.9566	50.8878	215.85	-10.2656	86.9851	180.59	-3.95986	62.5695	
100	0.833333	146.213	-23.9506	71.2103	126.714	-45.8925	51.5569	118.743	-61.0784	30.0443	124.393	-78.8563	7.51809	176.824	-5.48819	-4.53569	177.256	-7.62066	-38.2017	176.248	-32.2612	-55.7733	207.888	-6.98719	-7.38007	215.151	-16.2472	-40.9028	208.553	-45.9292	-57.2639	224.455	-29.6629	-2.79469	219.43	-56.7447	-25.507	202.64	-80.9617	-4.56669	236.293	-52.3474	18.1974	223.88	-75.2146	3.90511	198.088	-89.0689	19.7568	214.362	-15.1107	52.8564	216.499	-11.3526	86.4046	182.864	-1.86973	63.125	
101	0.841667	144.348	-22.8683	68.6192	130.887	-45.4072	48.3971	120.077	-59.9816	24.0505	123.221	-79.1551	7.72663	173.231	-1.92222	-5.90832	176.038	-5.97181	-36.3007	173.671	-36.0246	-55.038	208.278	-4.98467	-8.83799	211.905	-14.4812	-39.4127	203.785	-50.546	-55.4988	221.365	-27.0335	-4.41155	218.674	-54.2188	-24.8744	201.677	-77.8562	-7.05817	233.908	-49.8252	18.7486	222.578	-74.7533	4.54287	196.346	-87.4509	17.2748	216.311	-15.088	56.6331	212.903	-11.7176	88.6098	184.677	-1.91451	64.0447	
102	0.85	147.807	-23.3828	71.3819	128.984	-44.9815	49.972	121.967	-59.9869	23.4056	129.459	-77.8164	8.35397	175.244	-2.19918	-2.20332	178.664	-6.03128	-34.5068	173.543	-35.5581	-51.8452	207.402	-4.35324	-5.58442	212.334	-16.6593	-40.237	202.786	-54.4654	-50.225	223.264	-26.3055	-0.608679	218.685	-50.4972	-24.8506	202.245	-75.7365	-8.6884	234.295	-49.5857	15.7566	223.641	-72.6449	3.55271	198.716	-86.8166	16.118	215.705	-12.6082	52.5621	214.867	-10.5582	91.0331	184.972	-1.53896	66.4293	
103	0.858333	143.915	-22.4766	74.3258	130.096	-43.923	50.1357	126.579	-57.2456	24.7922	135.383	-76.2067	1.90205	177.011	-0.603943	-3.905	174.863	-6.76556	-36.2467	167.488	-35.9342	-50.2211	207.923	-4.36654	-4.74264	207.145	-15.9169	-39.4786	195.951	-49.9965	-46.9301	221.05	-22.9898	-2.85606	218.589	-46.8805	-24.0535	203.062	-72.5595	-8.56458	235.262	-48.0344	15.8062	223.102	-68.0159	1.21861	197.22	-84.1693	13.2067	217.163	-12.1657	55.4511	212.777	-9.44037	91.0844	179.775	0.770731	68.2198	
104	0.866667	147.91	-23.2553	76.1352	126.897	-42.462	48.2584	128.559	-54.7714	22.5049	138.719	-71.7902	4.47229	170.603	2.99511	-0.527768	171.705	-4.02674	-35.4184	168.546	-36.0139	-45.6128	202.302	1.8206	-6.72006	207.133	-13.5437	-37.5286	195.24	-49.5065	-41.4147	221.44	-19.563	-1.29861	213.987	-43.494	-25.4905	202.901	-69.4357	-6.07136	233.894	-41.5938	17.8449	223.207	-64.6606	0.182884	194.141	-79.7749	14.7821	215.038	-9.80692	60.098	213.165	-10.827	93.6894	182.91	-1.29938	71.1328	
105	0.875	146.079	-21.4684	75.5616	127.552	-41.3723	47.96	127.667	-53.2098	19.2285	144.651	-68.2735	0.844393	170.588	6.39655	-1.3221	170.823	-1.42958	-32.1354	165.305	-32.3394	-41.4018	201.729	3.71633	-5.04755	203.995	-9.14941	-35.2934	189.662	-46.9785	-36.2003	217.937	-14.7205	-3.15996	211.613	-38.8483	-25.0665	199.756	-63.2905	-9.76672	232.719	-37.1992	16.8836	219.285	-59.61	-0.950702	196.874	-75.0525	12.0472	213.907	-8.31978	57.962	210.375	-8.33859	93.1416	178.756	1.00043	69.6909	
106	0.883333	141.339	-20.5818	77.2868	126.21	-38.8561	48.1959	129.938	-48.9597	18.1615	145.593	-63.6859	2.45385	172.046	8.21762	0.0225737	172.737	0.729843	-29.4428	163.593	-34.0449	-36.536	201.54	6.17886	-5.28815	199.838	-10.105	-36.3062	184.669	-48.002	-29.5111	216.468	-9.69078	-1.30535	212.182	-32.054	-24.1777	197.897	-57.5741	-10.2266	233.201	-32.8549	19.1018	222.134	-56.3135	-1.83057	201.174	-73.4499	9.02664	216.96	-5.20844	59.6293	213.699	-8.47438	95.3843	179.203	3.75205	70.8259	
107	0.891667	141.824	-21.3448	78.9956	130.737	-37.176	47.8352	132.271	-45.5471	17.8157	147.204	-60.1821	-1.01043	167.9	11.5958	2.12624	165.391	1.14154	-30.9332	158.267	-35.6166	-30.4886	196.779	10.188	-6.10678	193.895	-7.45177	-34.8249	186.081	-43.8426	-28.0043	214.28	-6.28632	0.696954	212.639	-31.3935	-24.2944	197.434	-54.1705	-9.73527	232.061	-28.6146	15.8693	223.168	-45.7092	-4.63529	197.777	-67.0632	5.48699	215.141	-4.94499	60.8814	210.158	-6.18275	93.0181	177.87	3.82898	74.6643	
108	0.9	143.951	-21.5145	80.336	126.433	-35.6497	46.9852	125.583	-45.0443	19.1287	145.27	-56.7672	-0.135252	165.837	11.923	4.061	163.704	-1.17383	-30.2702	154.802	-35.2386	-27.5001	192.135	10.9267	0.0594746	194.93	-5.52355	-33.6678	180.56	-41.2873	-27.4009	213.166	-2.73996	-0.793123	211.633	-25.6687	-24.8481	198.536	-54.3385	-9.93504	229.483	-23.8236	13.9396	221.305	-38.5303	-5.338	199.848	-65.0698	-0.7373	213.394	-4.61881	62.6272	207.111	-4.8429	94.3014	176.587	6.10266	76.0571	
109	0.908333	139.102	-19.8612	81.229	124.637	-34.5656	52.3867	123.711	-42.9606	19.9948	139.807	-54.7577	0.323507	160.144	12.5676	6.22563	160.343	3.01394	-26.5271	153.232	-35.1676	-27.9069	192.387	13.0808	-3.67906	186.334	-1.60505	-33.1862	180.667	-39.5065	-29.9518	213.156	-0.318596	2.08602	211.044	-17.8502	-24.6076	197.902	-48.6574	-16.5241	225.619	-17.7947	16.9167	220.866	-34.8119	-7.24507	199.954	-57.6751	-5.98683	208.856	-2.05359	63.0182	208.461	-3.85504	95.6092	174.479	3.79209	77.8993	
110	0.916667	135.74	-18.0009	79.4139	120.031	-35.4381	53.0719	114.247	-43.5302	26.2717	128.007	-56.2868	-0.799324	160.128	12.0345	6.3918	157.027	0.587907	-27.7724	149.01	-31.4386	-31.7766	183.394	15.2024	0.391879	183.859	-2.21566	-34.9854	176.23	-38.5311	-34.4171	207.891	2.50335	5.47686	202.878	-13.7069	-27.711	194.949	-41.5136	-24.6153	224.974	-15.3692	18.004	219.621	-26.9766	-6.86206	204.505	-53.5519	-17.1151	206.6	-1.05809	63.8907	204.026	-4.75558	97.4323	170.796	7.77522	76.1536	
111	0.925	135.844	-19.7464	80.744	117.551	-37.3615	57.8306	108.37	-46.1428	32.449	116.539	-59.7214	6.59161	153.516	10.9372	4.97045	150.605	1.34008	-28.5818	144.399	-30.4847	-36.3227	181.287	13.8163	-0.567962	178.075	3.51689	-34.2727	171.934	-37.5428	-42.2074	204.936	3.88276	4.97678	201.433	-7.16251	-27.1008	194.418	-39.5352	-33.1639	220.377	-15.7486	20.8754	222.64	-24.4093	-6.82803	211.868	-44.43	-24.4606	198.207	1.60187	59.3169	203.484	-1.77738	94.1255	166.186	6.9661	79.2384	
112	0.933333	130.85	-19.3778	81.6399	114.458	-38.22	58.1652	103.479	-49.8728	36.7209	105.383	-65.8727	11.4388	144.114	6.6952	4.80115	144.349	-0.904844	-29.7828	142.193	-26.9353	-41.9919	172.763	11.9412	-6.06721	176.284	3.05322	-35.8016	168.51	-31.7786	-52.6427	196.873	5.45203	3.00756	199.253	-3.73591	-30.1624	195.629	-34.0277	-43.323	219.952	-16.7374	19.8625	227.353	-23.2408	-7.31452	219.155	-38.6562	-30.0895	197.013	2.96926	56.7827	198.116	1.32301	91.2115	162.15	5.27734	74.2593	
113	0.941667	124.671	-20.1889	84.499	105.574	-42.8583	66.5408	94.8179	-55.4597	40.0413	93.1676	-73.0489	22.3853	140.132	2.28823	2.80422	134.279	-2.32449	-27.401	137.097	-29.6942	-51.0033	172.009	6.0862	-4.89097	172.183	-2.69001	-41.3215	168.941	-26.1515	-59.7645	191.407	2.18533	1.4706	199.865	-2.13649	-30.3959	195.244	-26.1058	-52.5598	217.526	-18.2049	15.956	222.991	-21.9189	-7.69939	227.873	-29.3853	-29.4209	190.464	0.40779	53.5322	192.018	0.740136	91.1585	156.877	4.19297	74.0299	
114	0.95	121.376	-22.8758	81.9603	104.686	-45.764	69.4555	93.858	-60.6521	49.7126	85.363	-78.8055	29.7089	132.18	-4.67635	0.68836	128.924	-9.73863	-30.3545	130.81	-28.26	-54.3716	166.701	2.13219	-8.87549	163.364	-3.90725	-38.6445	163.814	-23.947	-65.2418	185.7	-0.841532	-0.289674	193.539	-3.09528	-33.2193	195.517	-17.5973	-53.4269	214.091	-20.3176	17.6807	222.275	-22.984	-5.55662	229.334	-24.4551	-25.8768	187.779	-0.794642	55.8201	186.318	3.82581	84.1901	151.407	2.21698	72.2416	
115	0.958333	118.351	-24.3876	86.0726	99.4686	-49.9753	73.9431	86.363	-66.6715	57.4786	80.3694	-85.3108	41.5867	129.524	-9.86768	0.890388	121.937	-14.0018	-30.388	118.912	-28.363	-56.9255	157.753	-2.18074	-9.26029	160.319	-7.4304	-43.8718	157.769	-22.7655	-72.3082	184.315	-6.6293	1.31496	185.494	-4.22436	-30.9729	190.996	-14.6822	-56.1977	206.704	-22.2385	14.314	215.391	-23.6803	-6.2359	222.822	-19.7462	-26.1364	182.088	-3.31965	53.4055	183.373	2.21694	84.1912	150.047	3.37027	67.0513	
